<svg width="251" height="56" viewBox="0 0 251 56" fill="none" xmlns="http://www.w3.org/2000/svg">
<rect width="56" height="55.9999" rx="10" fill="#FF0000"/>
<path d="M47.3268 34.8274C46.8786 34.3788 46.3333 34.1543 45.6926 34.1543H34.5384L31.2692 37.4234C30.3397 38.3207 29.25 38.7695 28 38.7695C26.7503 38.7695 25.6603 38.3213 24.7308 37.4234L21.4856 34.1543H10.3077C9.66676 34.1543 9.12192 34.379 8.67307 34.8274C8.2243 35.276 8 35.8209 8 36.4622V44.1543C8 44.7953 8.2243 45.3402 8.67307 45.7889C9.12184 46.2375 9.66667 46.4616 10.3077 46.4616H45.6927C46.3334 46.4616 46.8787 46.2375 47.3269 45.7889C47.7759 45.3402 48 44.7953 48 44.1543V36.4622C48 35.8209 47.7759 35.276 47.3268 34.8274ZM38.3129 42.9283C38.008 43.2328 37.6473 43.385 37.2307 43.385C36.814 43.385 36.4538 43.2328 36.149 42.9283C35.8447 42.6237 35.6925 42.2633 35.6925 41.8468C35.6925 41.4302 35.8447 41.0692 36.149 40.7652C36.4538 40.4604 36.814 40.3079 37.2307 40.3079C37.6473 40.3079 38.008 40.4604 38.3129 40.7652C38.6171 41.0691 38.7693 41.4302 38.7693 41.8468C38.7693 42.2632 38.6171 42.6237 38.3129 42.9283ZM44.4664 42.9283C44.1621 43.2328 43.8014 43.385 43.3846 43.385C42.968 43.385 42.6075 43.2328 42.3029 42.9283C41.9987 42.6237 41.8466 42.2633 41.8466 41.8468C41.8466 41.4302 41.9987 41.0692 42.3029 40.7652C42.6075 40.4604 42.9679 40.3079 43.3846 40.3079C43.8013 40.3079 44.162 40.4604 44.4664 40.7652C44.7709 41.0691 44.9233 41.4302 44.9233 41.8468C44.9233 42.2632 44.7711 42.6237 44.4664 42.9283Z" fill="white"/>
<path d="M26.9183 35.2359C27.207 35.5401 27.5675 35.6924 28 35.6924C28.4329 35.6924 28.793 35.5401 29.0817 35.2359L39.851 24.4665C40.3477 24.0018 40.4601 23.4408 40.1876 22.7837C39.9156 22.1589 39.4427 21.8465 38.7694 21.8461H32.6153V11.0769C32.6153 10.6603 32.4629 10.2996 32.1589 9.99518C31.8541 9.69064 31.4937 9.53833 31.0772 9.53833H24.9228C24.5063 9.53833 24.1457 9.69064 23.8411 9.99518C23.5367 10.2996 23.3844 10.6602 23.3844 11.0769V21.8462H17.2306C16.5572 21.8462 16.0847 22.159 15.8122 22.7838C15.5399 23.4406 15.652 24.0019 16.1489 24.4666L26.9183 35.2359Z" fill="white"/>
<path d="M70.048 45.016C69.5787 45.016 69.1947 44.888 68.896 44.632C68.5973 44.3973 68.416 44.0773 68.352 43.672C68.3093 43.2667 68.384 42.84 68.576 42.392L70.752 37.56V39.224L64.928 25.752C64.736 25.2827 64.672 24.8453 64.736 24.44C64.8 24.0347 64.992 23.7147 65.312 23.48C65.6533 23.224 66.112 23.096 66.688 23.096C67.1787 23.096 67.5733 23.2133 67.872 23.448C68.1707 23.6613 68.4373 24.0773 68.672 24.696L72.992 35.48H72.032L76.448 24.664C76.6827 24.0667 76.96 23.6613 77.28 23.448C77.6 23.2133 78.0267 23.096 78.56 23.096C79.0293 23.096 79.4027 23.224 79.68 23.48C79.9573 23.7147 80.128 24.0347 80.192 24.44C80.256 24.824 80.1813 25.2507 79.968 25.72L72.192 43.48C71.9147 44.0773 71.616 44.4827 71.296 44.696C70.976 44.9093 70.56 45.016 70.048 45.016ZM90.2405 39.32C88.8538 39.32 87.6912 39.0853 86.7525 38.616C85.8352 38.1467 85.1525 37.464 84.7045 36.568C84.2565 35.6507 84.0325 34.52 84.0325 33.176V26.36H82.3685C81.8565 26.36 81.4618 26.232 81.1845 25.976C80.9072 25.6987 80.7685 25.3253 80.7685 24.856C80.7685 24.3653 80.9072 23.992 81.1845 23.736C81.4618 23.48 81.8565 23.352 82.3685 23.352H84.0325V20.44C84.0325 19.7787 84.2032 19.2773 84.5445 18.936C84.9072 18.5947 85.4085 18.424 86.0485 18.424C86.6885 18.424 87.1792 18.5947 87.5205 18.936C87.8618 19.2773 88.0325 19.7787 88.0325 20.44V23.352H91.4245C91.9365 23.352 92.3312 23.48 92.6085 23.736C92.8858 23.992 93.0245 24.3653 93.0245 24.856C93.0245 25.3253 92.8858 25.6987 92.6085 25.976C92.3312 26.232 91.9365 26.36 91.4245 26.36H88.0325V32.952C88.0325 33.976 88.2565 34.744 88.7045 35.256C89.1525 35.768 89.8778 36.024 90.8805 36.024C91.2432 36.024 91.5632 35.992 91.8405 35.928C92.1178 35.864 92.3632 35.8213 92.5765 35.8C92.8325 35.7787 93.0458 35.864 93.2165 36.056C93.3872 36.2267 93.4725 36.5893 93.4725 37.144C93.4725 37.5707 93.3978 37.9547 93.2485 38.296C93.1205 38.616 92.8752 38.84 92.5125 38.968C92.2352 39.0533 91.8725 39.128 91.4245 39.192C90.9765 39.2773 90.5818 39.32 90.2405 39.32ZM100.698 39.32C99.3964 39.32 98.3191 39.0853 97.4658 38.616C96.6124 38.1253 95.9724 37.4 95.5458 36.44C95.1404 35.48 94.9378 34.2853 94.9378 32.856V25.112C94.9378 24.4293 95.1084 23.928 95.4498 23.608C95.7911 23.2667 96.2818 23.096 96.9218 23.096C97.5618 23.096 98.0524 23.2667 98.3938 23.608C98.7564 23.928 98.9378 24.4293 98.9378 25.112V32.92C98.9378 34.0293 99.1618 34.8507 99.6098 35.384C100.058 35.9173 100.772 36.184 101.754 36.184C102.82 36.184 103.695 35.8213 104.378 35.096C105.06 34.3493 105.402 33.368 105.402 32.152V25.112C105.402 24.4293 105.572 23.928 105.914 23.608C106.255 23.2667 106.746 23.096 107.386 23.096C108.026 23.096 108.516 23.2667 108.858 23.608C109.22 23.928 109.402 24.4293 109.402 25.112V37.208C109.402 38.5733 108.751 39.256 107.45 39.256C106.831 39.256 106.351 39.0853 106.01 38.744C105.668 38.3813 105.498 37.8693 105.498 37.208V34.776L105.946 35.736C105.498 36.888 104.815 37.7733 103.898 38.392C103.002 39.0107 101.935 39.32 100.698 39.32ZM122.269 39.32C120.946 39.32 119.784 38.9893 118.781 38.328C117.8 37.6667 117.149 36.7813 116.829 35.672L117.181 34.872V37.208C117.181 37.8693 117.01 38.3813 116.669 38.744C116.328 39.0853 115.848 39.256 115.229 39.256C114.589 39.256 114.098 39.0853 113.757 38.744C113.416 38.3813 113.245 37.8693 113.245 37.208V18.2C113.245 17.5387 113.416 17.0373 113.757 16.696C114.098 16.3547 114.589 16.184 115.229 16.184C115.869 16.184 116.36 16.3547 116.701 16.696C117.064 17.0373 117.245 17.5387 117.245 18.2V26.52H116.861C117.202 25.4747 117.864 24.632 118.845 23.992C119.826 23.352 120.968 23.032 122.269 23.032C123.656 23.032 124.861 23.3627 125.885 24.024C126.909 24.6853 127.709 25.624 128.285 26.84C128.861 28.0347 129.149 29.4747 129.149 31.16C129.149 32.824 128.861 34.2747 128.285 35.512C127.709 36.728 126.898 37.6667 125.853 38.328C124.829 38.9893 123.634 39.32 122.269 39.32ZM121.149 36.28C121.938 36.28 122.632 36.088 123.229 35.704C123.826 35.32 124.285 34.7547 124.605 34.008C124.946 33.24 125.117 32.2907 125.117 31.16C125.117 29.4533 124.754 28.184 124.029 27.352C123.304 26.4987 122.344 26.072 121.149 26.072C120.36 26.072 119.666 26.264 119.069 26.648C118.472 27.0107 118.002 27.576 117.661 28.344C117.341 29.0907 117.181 30.0293 117.181 31.16C117.181 32.8453 117.544 34.1253 118.269 35C118.994 35.8533 119.954 36.28 121.149 36.28ZM139.825 39.32C138.054 39.32 136.529 38.9893 135.249 38.328C133.969 37.6667 132.977 36.728 132.273 35.512C131.59 34.296 131.249 32.856 131.249 31.192C131.249 29.5707 131.579 28.152 132.241 26.936C132.923 25.72 133.851 24.7707 135.025 24.088C136.219 23.384 137.574 23.032 139.089 23.032C140.198 23.032 141.19 23.2133 142.065 23.576C142.961 23.9387 143.718 24.4613 144.337 25.144C144.977 25.8267 145.457 26.6587 145.777 27.64C146.118 28.6 146.289 29.688 146.289 30.904C146.289 31.288 146.15 31.5867 145.873 31.8C145.617 31.992 145.243 32.088 144.753 32.088H134.481V29.784H143.473L142.961 30.264C142.961 29.2827 142.811 28.4613 142.513 27.8C142.235 27.1387 141.819 26.6373 141.265 26.296C140.731 25.9333 140.059 25.752 139.249 25.752C138.353 25.752 137.585 25.9653 136.945 26.392C136.326 26.7973 135.846 27.384 135.505 28.152C135.185 28.8987 135.025 29.7947 135.025 30.84V31.064C135.025 32.8133 135.43 34.1253 136.241 35C137.073 35.8533 138.289 36.28 139.889 36.28C140.443 36.28 141.062 36.216 141.745 36.088C142.449 35.9387 143.11 35.6933 143.729 35.352C144.177 35.096 144.571 34.9893 144.913 35.032C145.254 35.0533 145.521 35.1707 145.713 35.384C145.926 35.5973 146.054 35.864 146.097 36.184C146.139 36.4827 146.075 36.792 145.905 37.112C145.755 37.432 145.489 37.7093 145.105 37.944C144.358 38.4133 143.494 38.7653 142.513 39C141.553 39.2133 140.657 39.32 139.825 39.32ZM151.312 39C150.63 39 150.128 38.8507 149.808 38.552C149.51 38.232 149.36 37.7733 149.36 37.176C149.36 36.8133 149.456 36.4613 149.648 36.12C149.84 35.7787 150.118 35.416 150.48 35.032L156.912 28.184C157.894 27.16 158.598 26.232 159.024 25.4C159.451 24.5467 159.664 23.6933 159.664 22.84C159.664 21.7733 159.323 20.9627 158.64 20.408C157.979 19.8533 157.008 19.576 155.728 19.576C155.003 19.576 154.278 19.6827 153.552 19.896C152.827 20.088 152.091 20.4293 151.344 20.92C150.96 21.176 150.598 21.2827 150.256 21.24C149.936 21.1973 149.648 21.0587 149.392 20.824C149.158 20.5893 148.998 20.3013 148.912 19.96C148.827 19.6187 148.838 19.2773 148.944 18.936C149.072 18.5733 149.328 18.264 149.712 18.008C150.63 17.3893 151.654 16.92 152.784 16.6C153.936 16.28 155.088 16.12 156.24 16.12C157.862 16.12 159.227 16.3653 160.336 16.856C161.446 17.3467 162.288 18.0613 162.864 19C163.44 19.9387 163.728 21.08 163.728 22.424C163.728 23.32 163.579 24.1947 163.28 25.048C163.003 25.9013 162.566 26.7653 161.968 27.64C161.392 28.5147 160.635 29.4427 159.696 30.424L153.68 36.696V35.608H163.088C163.664 35.608 164.102 35.7467 164.4 36.024C164.699 36.3013 164.848 36.7173 164.848 37.272C164.848 37.8267 164.699 38.2533 164.4 38.552C164.102 38.8507 163.664 39 163.088 39H151.312ZM174.02 39.32C172.654 39.32 171.449 38.9893 170.404 38.328C169.38 37.6667 168.58 36.728 168.004 35.512C167.428 34.2747 167.14 32.824 167.14 31.16C167.14 29.4747 167.428 28.0347 168.004 26.84C168.58 25.624 169.38 24.6853 170.404 24.024C171.449 23.3627 172.654 23.032 174.02 23.032C175.321 23.032 176.452 23.352 177.412 23.992C178.393 24.632 179.054 25.4747 179.396 26.52H179.044V18.2C179.044 17.5387 179.214 17.0373 179.556 16.696C179.897 16.3547 180.388 16.184 181.028 16.184C181.668 16.184 182.158 16.3547 182.5 16.696C182.862 17.0373 183.044 17.5387 183.044 18.2V37.208C183.044 37.8693 182.873 38.3813 182.532 38.744C182.19 39.0853 181.7 39.256 181.06 39.256C180.42 39.256 179.929 39.0853 179.588 38.744C179.246 38.3813 179.076 37.8693 179.076 37.208V34.712L179.428 35.672C179.108 36.7813 178.457 37.6667 177.476 38.328C176.494 38.9893 175.342 39.32 174.02 39.32ZM175.14 36.28C175.929 36.28 176.622 36.088 177.22 35.704C177.817 35.32 178.276 34.7547 178.596 34.008C178.937 33.24 179.108 32.2907 179.108 31.16C179.108 29.4533 178.745 28.184 178.02 27.352C177.294 26.4987 176.334 26.072 175.14 26.072C174.35 26.072 173.657 26.264 173.06 26.648C172.462 27.0107 171.993 27.576 171.652 28.344C171.332 29.0907 171.172 30.0293 171.172 31.16C171.172 32.8453 171.534 34.1253 172.26 35C172.985 35.8533 173.945 36.28 175.14 36.28Z" fill="#FF0000"/>
<path d="M188.791 39.16C188.066 39.16 187.479 38.936 187.031 38.488C186.605 38.04 186.391 37.464 186.391 36.76C186.391 36.0773 186.605 35.5227 187.031 35.096C187.479 34.648 188.066 34.424 188.791 34.424C189.538 34.424 190.114 34.648 190.519 35.096C190.946 35.5227 191.159 36.0773 191.159 36.76C191.159 37.464 190.946 38.04 190.519 38.488C190.114 38.936 189.538 39.16 188.791 39.16ZM201.127 39.32C199.484 39.32 198.055 38.9893 196.839 38.328C195.623 37.6453 194.684 36.6853 194.023 35.448C193.362 34.2107 193.031 32.76 193.031 31.096C193.031 29.8373 193.212 28.7173 193.575 27.736C193.959 26.7333 194.503 25.8907 195.207 25.208C195.911 24.504 196.764 23.9707 197.767 23.608C198.77 23.224 199.89 23.032 201.127 23.032C201.831 23.032 202.588 23.128 203.399 23.32C204.231 23.512 205.01 23.832 205.735 24.28C206.076 24.4933 206.3 24.7493 206.407 25.048C206.514 25.3467 206.535 25.656 206.471 25.976C206.407 26.2747 206.268 26.5413 206.055 26.776C205.863 26.9893 205.618 27.128 205.319 27.192C205.02 27.2347 204.69 27.16 204.327 26.968C203.858 26.6907 203.378 26.488 202.887 26.36C202.396 26.2107 201.927 26.136 201.479 26.136C200.775 26.136 200.156 26.2533 199.623 26.488C199.09 26.7013 198.631 27.0213 198.247 27.448C197.884 27.8533 197.607 28.3653 197.415 28.984C197.223 29.6027 197.127 30.3173 197.127 31.128C197.127 32.7067 197.5 33.9547 198.247 34.872C199.015 35.768 200.092 36.216 201.479 36.216C201.927 36.216 202.386 36.152 202.855 36.024C203.346 35.896 203.836 35.6933 204.327 35.416C204.69 35.224 205.01 35.16 205.287 35.224C205.586 35.288 205.831 35.4373 206.023 35.672C206.215 35.8853 206.332 36.152 206.375 36.472C206.418 36.7707 206.375 37.0693 206.247 37.368C206.14 37.6667 205.927 37.912 205.607 38.104C204.903 38.5307 204.156 38.84 203.367 39.032C202.578 39.224 201.831 39.32 201.127 39.32ZM215.492 39.32C213.871 39.32 212.463 38.9893 211.268 38.328C210.074 37.6667 209.146 36.728 208.484 35.512C207.823 34.2747 207.492 32.824 207.492 31.16C207.492 29.9013 207.674 28.7813 208.036 27.8C208.42 26.7973 208.964 25.944 209.668 25.24C210.372 24.5147 211.215 23.9707 212.196 23.608C213.178 23.224 214.276 23.032 215.492 23.032C217.114 23.032 218.522 23.3627 219.716 24.024C220.911 24.6853 221.839 25.624 222.5 26.84C223.162 28.056 223.492 29.496 223.492 31.16C223.492 32.4187 223.3 33.5493 222.916 34.552C222.554 35.5547 222.02 36.4187 221.316 37.144C220.612 37.848 219.77 38.392 218.788 38.776C217.807 39.1387 216.708 39.32 215.492 39.32ZM215.492 36.28C216.282 36.28 216.975 36.088 217.572 35.704C218.17 35.32 218.628 34.7547 218.948 34.008C219.29 33.24 219.46 32.2907 219.46 31.16C219.46 29.4533 219.098 28.184 218.372 27.352C217.647 26.4987 216.687 26.072 215.492 26.072C214.703 26.072 214.01 26.264 213.412 26.648C212.815 27.0107 212.346 27.576 212.004 28.344C211.684 29.0907 211.524 30.0293 211.524 31.16C211.524 32.8453 211.887 34.1253 212.612 35C213.338 35.8533 214.298 36.28 215.492 36.28ZM228.522 39.256C227.882 39.256 227.391 39.0853 227.05 38.744C226.708 38.3813 226.538 37.8693 226.538 37.208V25.112C226.538 24.4507 226.708 23.9493 227.05 23.608C227.391 23.2667 227.871 23.096 228.49 23.096C229.108 23.096 229.588 23.2667 229.93 23.608C230.271 23.9493 230.442 24.4507 230.442 25.112V27.448L230.09 26.488C230.516 25.4213 231.178 24.5787 232.074 23.96C232.97 23.3413 234.036 23.032 235.274 23.032C236.532 23.032 237.567 23.3307 238.378 23.928C239.188 24.5253 239.754 25.4427 240.074 26.68H239.626C240.052 25.5493 240.756 24.664 241.738 24.024C242.719 23.3627 243.85 23.032 245.13 23.032C246.324 23.032 247.306 23.2667 248.074 23.736C248.863 24.2053 249.45 24.92 249.834 25.88C250.218 26.8187 250.41 28.0133 250.41 29.464V37.208C250.41 37.8693 250.228 38.3813 249.866 38.744C249.524 39.0853 249.034 39.256 248.394 39.256C247.754 39.256 247.263 39.0853 246.922 38.744C246.58 38.3813 246.41 37.8693 246.41 37.208V29.624C246.41 28.4293 246.207 27.5547 245.802 27C245.418 26.4453 244.756 26.168 243.818 26.168C242.772 26.168 241.951 26.5413 241.354 27.288C240.756 28.0133 240.458 29.0267 240.458 30.328V37.208C240.458 37.8693 240.287 38.3813 239.946 38.744C239.604 39.0853 239.114 39.256 238.474 39.256C237.834 39.256 237.332 39.0853 236.97 38.744C236.628 38.3813 236.458 37.8693 236.458 37.208V29.624C236.458 28.4293 236.255 27.5547 235.85 27C235.466 26.4453 234.815 26.168 233.898 26.168C232.852 26.168 232.031 26.5413 231.434 27.288C230.836 28.0133 230.538 29.0267 230.538 30.328V37.208C230.538 38.5733 229.866 39.256 228.522 39.256Z" fill="white"/>
</svg>
