<svg width="81" height="80" viewBox="0 0 81 80" fill="none" xmlns="http://www.w3.org/2000/svg">
<rect x="0.333313" width="80" height="80" rx="40" fill="#FF0000" fill-opacity="0.05"/>
<path d="M49 32.5C46.33 32.5 43.7199 33.2918 41.4998 34.7752C39.2797 36.2586 37.5494 38.367 36.5276 40.8338C35.5058 43.3006 35.2385 46.015 35.7594 48.6337C36.2803 51.2525 37.5661 53.6579 39.4541 55.5459C41.3421 57.4339 43.7475 58.7197 46.3663 59.2406C48.985 59.7615 51.6994 59.4942 54.1662 58.4724C56.633 57.4506 58.7414 55.7203 60.2248 53.5002C61.7082 51.2801 62.5 48.67 62.5 46C62.5 42.4196 61.0777 38.9858 58.5459 36.4541C56.0142 33.9223 52.5804 32.5 49 32.5ZM46.375 38.5H49.375V41.665H46.375V38.5ZM52.75 53.5H45.25V50.5H47.5V46.825H45.25V43.825H49C49.3978 43.825 49.7794 43.983 50.0607 44.2643C50.342 44.5456 50.5 44.9272 50.5 45.325V50.5H52.75V53.5Z" fill="#FF0000"/>
<path d="M35.185 55H23.5V52H33.64C32.8923 50.0877 32.5058 48.0533 32.5 46H23.5V43H32.785C33.44 39.4646 35.2319 36.2399 37.8882 33.8165C40.5444 31.3932 43.9195 29.9038 47.5 29.575V20.5C47.5 19.7044 47.1839 18.9413 46.6213 18.3787C46.0587 17.8161 45.2956 17.5 44.5 17.5H28L29.41 21.745C29.681 22.5542 29.7558 23.4162 29.6282 24.26C29.5006 25.1038 29.1744 25.9051 28.6763 26.5981C28.1782 27.291 27.5226 27.8556 26.7634 28.2454C26.0043 28.6352 25.1634 28.839 24.31 28.84L23.5 28.795L17.5 28V59.5C17.5 60.2957 17.8161 61.0587 18.3787 61.6213C18.9413 62.1839 19.7044 62.5 20.5 62.5H44.5C44.9583 62.4972 45.4098 62.3894 45.82 62.185C43.6572 61.7585 41.6019 60.903 39.7753 59.6689C37.9487 58.4349 36.3878 56.8473 35.185 55ZM34 23.5H41.5V26.5H34V23.5ZM23.5 34H32.5V37H23.5V34Z" fill="#FF0000"/>
<path d="M26.065 25C26.3335 24.6868 26.515 24.3085 26.5913 23.9031C26.6677 23.4977 26.6362 23.0794 26.5 22.69L25 18.34L18.385 25L23.905 25.795C24.3027 25.8513 24.7082 25.8082 25.0851 25.6694C25.462 25.5307 25.7987 25.3007 26.065 25Z" fill="#FF0000"/>
</svg>
