<svg width="48" height="48" viewBox="0 0 48 48" fill="none" xmlns="http://www.w3.org/2000/svg">
<path d="M46.5938 3.9375H1.40625C0.629517 3.9375 0 4.56702 0 5.34375V42.6042C0 43.381 0.629517 44.0105 1.40625 44.0105H46.5938C47.3705 44.0105 48 43.381 48 42.6042V5.34375C48 4.56702 47.3705 3.9375 46.5938 3.9375ZM18.0509 28.6948V19.2532C18.0509 18.5779 18.4362 17.9623 19.0562 17.6466C19.686 17.3262 20.4525 17.369 21.0355 17.7506L29.0819 22.4476C29.1229 22.4714 29.1625 22.4974 29.2009 22.5253C29.6766 22.8717 29.9495 23.3998 29.9495 23.974C29.9495 24.5482 29.6766 25.0763 29.2009 25.4227C29.1625 25.4506 29.1229 25.4766 29.0819 25.5004L21.0355 30.1974C20.7133 30.408 20.3357 30.5153 19.9556 30.5153C19.6476 30.5153 19.3381 30.4446 19.0562 30.301C18.4358 29.9857 18.0509 29.3701 18.0509 28.6948ZM33.0216 9.19849V6.75H37.7402V9.19849H33.0216ZM30.2091 9.19849H25.4901V6.75H30.2091V9.19849ZM22.6776 9.19849H17.959V6.75H22.6776V9.19849ZM15.1465 9.19849H10.4279V6.75H15.1465V9.19849ZM15.1465 38.7495V41.198H10.4279V38.7495H15.1465ZM17.959 38.7495H22.6776V41.198H17.959V38.7495ZM25.4901 38.7495H30.2091V41.198H25.4901V38.7495ZM33.0216 38.7495H37.7402V41.198H33.0216V38.7495ZM45.1875 9.19849H40.5527V6.75H45.1875V9.19849ZM7.61536 6.75V9.19849H2.8125V6.75H7.61536ZM2.8125 38.7495H7.61536V41.198H2.8125V38.7495ZM40.5527 41.198V38.7495H45.1875V41.198H40.5527Z" fill="#FF0000"/>
</svg>
