<svg width="49" height="48" viewBox="0 0 49 48" fill="none" xmlns="http://www.w3.org/2000/svg">
<path d="M44.9672 33.7613C39.9162 29.5595 31.9112 33.3707 32.0007 39.9711C32.0058 42.0838 32.8473 44.1086 34.3412 45.6025C35.8351 47.0964 37.8599 47.9379 39.9726 47.9429C47.4886 47.9342 50.7667 38.391 44.9672 33.7613ZM43.8798 38.2535L39.3801 42.7532C39.2392 42.8921 39.0492 42.9699 38.8514 42.9699C38.6535 42.9699 38.4636 42.8921 38.3226 42.7532L36.0727 40.5034C35.9323 40.3618 35.8534 40.1704 35.8534 39.9709C35.8534 39.7715 35.9323 39.5801 36.0727 39.4385C36.1421 39.3689 36.2245 39.3138 36.3153 39.2761C36.406 39.2385 36.5033 39.2191 36.6015 39.2191C36.6997 39.2191 36.797 39.2385 36.8877 39.2761C36.9785 39.3138 37.0609 39.3689 37.1303 39.4385L38.8477 41.1633L42.8223 37.1886C42.9644 37.053 43.1541 36.9786 43.3505 36.9813C43.5469 36.984 43.7344 37.0635 43.8728 37.2029C44.0113 37.3423 44.0895 37.5304 44.0908 37.7268C44.0921 37.9232 44.0164 38.1123 43.8798 38.2535Z" fill="#FF0000"/>
<path d="M39.5941 28.8959C41.8514 28.8964 44.0514 29.6057 45.8826 30.9236C50.7201 16.4862 39.1964 0.744959 23.9194 1.00313C-6.63766 2.26343 -6.64204 45.7402 23.9196 46.9999C26.2706 47.0074 28.6083 46.6481 30.8481 45.9349C29.6891 44.3282 28.9969 42.4332 28.8477 40.4588C28.6986 38.4844 29.0982 36.5072 30.0027 34.7451C30.9072 32.983 32.2813 31.5045 33.9737 30.4724C35.6661 29.4403 37.611 28.8948 39.5941 28.8959ZM23.9451 37.5262C23.8178 37.5253 23.6923 37.4966 23.5773 37.4422C23.4623 37.3877 23.3607 37.3088 23.2795 37.2109L17.3066 29.7564C17.2091 29.63 17.1486 29.4791 17.1318 29.3204C17.115 29.1618 17.1427 29.0016 17.2117 28.8577C17.2806 28.7138 17.3882 28.5918 17.5225 28.5053C17.6568 28.4188 17.8124 28.3711 17.9722 28.3677H20.1053V11.3287C20.106 11.103 20.1961 10.8867 20.356 10.7271C20.5159 10.5674 20.7325 10.4775 20.9586 10.4768H26.9315C27.0436 10.4764 27.1548 10.4982 27.2585 10.5408C27.3622 10.5835 27.4564 10.6463 27.5357 10.7254C27.615 10.8046 27.6779 10.8987 27.7206 11.0023C27.7633 11.1058 27.7851 11.2168 27.7847 11.3287V28.3677H29.9179C30.0785 28.3695 30.2353 28.4159 30.3709 28.5017C30.5065 28.5876 30.6154 28.7095 30.6854 28.8537C30.7555 28.998 30.7838 29.1589 30.7673 29.3183C30.7508 29.4778 30.6901 29.6295 30.5921 29.7564L24.6192 37.2109C24.5363 37.309 24.4331 37.3879 24.3167 37.4423C24.2003 37.4967 24.0736 37.5253 23.9451 37.5262Z" fill="#FF0000"/>
</svg>
