<svg width="81" height="80" viewBox="0 0 81 80" fill="none" xmlns="http://www.w3.org/2000/svg">
<rect x="0.666748" width="80" height="80" rx="40" fill="#FF0000" fill-opacity="0.05"/>
<g clip-path="url(#clip0_30_322)">
<path d="M41 16C27.7663 16 17 26.7663 17 40C17 53.2337 27.7663 63.9998 41 63.9998C54.2337 63.9998 65 53.2334 65 40C65 26.7666 54.2334 16 41 16ZM53.1098 37.3135L48.3678 41.9361L49.4874 48.463C49.6037 49.1418 49.3245 49.828 48.7674 50.2328C48.452 50.4618 48.0788 50.5784 47.7036 50.5784C47.4157 50.5784 47.1264 50.5096 46.8617 50.3706L41.0002 47.2889L35.1385 50.3708C34.5285 50.6915 33.79 50.638 33.2328 50.2331C32.6755 49.8282 32.3963 49.142 32.5128 48.4633L33.6324 41.9363L28.89 37.3135C28.3968 36.8327 28.2194 36.1136 28.4323 35.4586C28.6451 34.8035 29.2114 34.326 29.8932 34.227L36.4465 33.2747L39.3771 27.3362C39.6821 26.7185 40.3111 26.3274 41 26.3274C41.6889 26.3274 42.3179 26.7185 42.6229 27.3362L45.5535 33.2747L52.1068 34.227C52.7884 34.326 53.3549 34.8035 53.5677 35.4586C53.7806 36.1136 53.603 36.8329 53.1098 37.3135Z" fill="#FF0000"/>
</g>
<defs>
<clipPath id="clip0_30_322">
<rect width="48" height="48" fill="white" transform="translate(17 16)"/>
</clipPath>
</defs>
</svg>
