<svg width="49" height="48" viewBox="0 0 49 48" fill="none" xmlns="http://www.w3.org/2000/svg">
<g id="gift 1" clip-path="url(#clip0_9_631)">
<path id="Vector" d="M2.16669 13.5187L20.0636 13.4906C19.9792 13.6031 19.8948 13.7156 19.8198 13.8281C19.2292 14.625 18.6761 15.3844 18.0011 15.9094C17.6729 16.1625 17.6261 16.6406 17.8792 16.9594C18.0292 17.1469 18.2448 17.2406 18.4698 17.2406C18.6292 17.2406 18.7979 17.1844 18.9386 17.0812C19.7636 16.425 20.4011 15.5531 21.0292 14.7094C21.4792 14.1 21.9104 13.5187 22.3698 13.05V22.3875C17.1854 22.1438 12.3854 21.075 8.63544 19.3125C5.29794 17.7375 3.07606 15.7312 2.16669 13.5187ZM9.11356 27.4594C12.6854 28.9312 17.3261 29.8312 22.3604 30.0469V23.8969C16.9698 23.6437 11.9354 22.5187 7.99794 20.6719C5.13856 19.3219 3.00106 17.6531 1.69794 15.7781V19.0406C1.70731 22.5563 4.26669 25.4625 9.11356 27.4594ZM25.4729 30.0844V23.9437C25.2011 23.9437 24.9386 23.9531 24.6667 23.9531C24.3948 23.9531 24.1229 23.9531 23.8604 23.9437V30.0844C24.1323 30.0844 24.3948 30.0938 24.6667 30.0938C24.9386 30.0938 25.2104 30.0938 25.4729 30.0844ZM24.8542 11.9813L24.6667 11.9719H24.5636C24.3104 11.9812 24.0761 12.0187 23.8511 12.0844V22.4344C24.1229 22.4344 24.3948 22.4437 24.6573 22.4437C24.9292 22.4437 25.2011 22.4438 25.4636 22.4344V12.0938C25.2854 12.0281 25.0792 12 24.8542 11.9813ZM31.8479 10.8281C30.5542 11.2875 29.1198 11.5687 27.7604 11.7375C27.8636 11.8312 27.9667 11.9344 28.0698 12.0375H47.5792C47.6167 11.7656 47.6354 11.5031 47.6354 11.2313C47.6354 10.9594 47.6167 10.6875 47.5792 10.425H32.8229C32.5136 10.5656 32.1948 10.7063 31.8479 10.8281ZM17.9823 9.4125C19.4636 9.9375 21.4042 10.2844 23.6261 10.425C22.9886 8.72812 21.8917 7.04063 20.5792 5.78438C19.4167 4.66875 18.2354 4.07812 17.2229 4.07812C16.8854 4.07812 16.5573 4.14375 16.2667 4.275C15.4886 4.63125 15.0011 5.4375 15.0386 6.32812C15.0948 7.63125 16.1917 8.78438 17.9823 9.4125ZM21.5729 11.7375C20.2136 11.5687 18.7698 11.2875 17.4854 10.8281C17.1386 10.7063 16.8198 10.5656 16.5104 10.4156H1.76356C1.72606 10.6875 1.70731 10.95 1.70731 11.2219C1.70731 11.4844 1.72606 11.7562 1.76356 12.0187L21.3198 11.9813C21.3948 11.8969 21.4886 11.8219 21.5729 11.7375ZM26.9729 5.48438C27.2073 5.2125 27.4604 4.95 27.7136 4.70625C30.5823 1.95 32.8511 2.53125 33.6854 2.90625C35.0261 3.51562 35.8511 4.875 35.7948 6.39375C35.7573 7.32187 35.4011 8.175 34.7729 8.91562H47.1573C46.2479 6.7125 44.0261 4.71562 40.6886 3.14062C36.9479 1.37813 32.1479 0.3 26.9729 0.05625V5.48438ZM47.1667 13.5375H29.3073C29.3823 13.6312 29.4479 13.7344 29.5229 13.8281C30.1136 14.625 30.6667 15.3844 31.3417 15.9094C31.6698 16.1625 31.7167 16.6406 31.4636 16.9594C31.3136 17.1469 31.0979 17.2406 30.8729 17.2406C30.7136 17.2406 30.5448 17.1844 30.4042 17.0812C29.5792 16.425 28.9417 15.5531 28.3136 14.7094C27.8636 14.1 27.4323 13.5187 26.9729 13.05V22.3875C32.1479 22.1438 36.9479 21.075 40.6979 19.3125C44.0354 17.7375 46.2479 15.7406 47.1667 13.5375ZM40.7917 28.8469C37.0417 30.3938 32.2042 31.3312 26.9729 31.5469V47.9531C32.0073 47.7469 36.6479 46.8469 40.2198 45.3656C45.0667 43.3687 47.6261 40.4531 47.6261 36.9469V23.85C46.4167 25.6219 44.3167 27.3938 40.7917 28.8469ZM25.4729 31.5844C25.2011 31.5844 24.9386 31.5938 24.6667 31.5938C24.3948 31.5938 24.1229 31.5938 23.8604 31.5844V47.9906C24.1323 47.9906 24.3948 48 24.6667 48C24.9386 48 25.2104 48 25.4729 47.9906V31.5844ZM41.3354 20.6719C37.3979 22.5281 32.3729 23.6531 26.9729 23.8969V30.0469C32.0073 29.8406 36.6479 28.9406 40.2198 27.4594C45.0667 25.4625 47.6261 22.5469 47.6261 19.0406V15.7781C46.3229 17.6531 44.1948 19.3219 41.3354 20.6719ZM22.3604 31.5469C17.1292 31.3312 12.2917 30.3938 8.54169 28.8469C5.01669 27.3938 2.91669 25.6219 1.70731 23.85V36.9469C1.70731 40.4531 4.26669 43.3687 9.11356 45.3656C12.6854 46.8375 17.3261 47.7375 22.3604 47.9531V31.5469ZM14.5604 8.91562C13.9417 8.175 13.5854 7.3125 13.5386 6.39375C13.4729 4.88437 14.2979 3.51562 15.6479 2.90625C16.4917 2.53125 18.7511 1.94062 21.6198 4.69687C21.8729 4.94062 22.1261 5.20312 22.3604 5.475V0.05625C17.1854 0.3 12.3854 1.37813 8.63544 3.14062C5.29794 4.71562 3.07606 6.7125 2.16669 8.91562H14.5604ZM34.2948 6.32812C34.3323 5.42812 33.8542 4.62187 33.0667 4.275C32.7667 4.14375 32.4479 4.07812 32.1104 4.07812C31.0979 4.07812 29.9167 4.66875 28.7542 5.78438C27.4417 7.04063 26.3448 8.72812 25.7073 10.425C27.9292 10.2844 29.8604 9.9375 31.3417 9.4125C33.1417 8.78438 34.2386 7.63125 34.2948 6.32812ZM23.8604 7.50937C24.1604 8.00625 24.4323 8.5125 24.6667 9.02813C24.9011 8.5125 25.1729 7.99687 25.4729 7.50937V0.009375C25.2104 0 24.9386 0 24.6667 0C24.3948 0 24.1229 0 23.8604 0.009375V7.50937Z" fill="#FF0000"/>
</g>
<defs>
<clipPath id="clip0_9_631">
<rect width="48" height="48" fill="white" transform="translate(0.666687)"/>
</clipPath>
</defs>
</svg>
