<svg width="80" height="80" viewBox="0 0 80 80" fill="none" xmlns="http://www.w3.org/2000/svg">
<rect width="80" height="80" rx="40" fill="#FF0000" fill-opacity="0.05"/>
<g clip-path="url(#clip0_30_323)">
<path d="M33.5098 44.3708H32.3351C34.551 43.0824 36.0451 40.6836 36.0451 37.941C36.0451 33.8418 32.7102 30.507 28.6111 30.507C24.5119 30.507 21.1771 33.8418 21.1771 37.941C21.1771 40.6836 22.6712 43.0823 24.8869 44.3708H23.7122C19.4597 44.3708 16 47.8306 16 52.0832V64H41.2222V52.0832C41.2222 47.8306 37.7625 44.3708 33.5098 44.3708Z" fill="#FF0000"/>
<path d="M38.4097 16V40.9464L46.2022 35.6622H64V16H38.4097ZM52.4167 31.9133H49.6042V29.5696H52.4167V31.9133ZM52.3922 27.2659V28.2102H49.5797V24.5238H51.6406C52.3093 24.5238 52.8533 23.9797 52.8533 23.3111C52.8533 22.6424 52.3093 22.0983 51.6406 22.0983H50.6584C50.441 22.0983 50.2641 22.2752 50.2641 22.4927V22.9289H47.4516V22.4927C47.4516 20.7244 48.8902 19.2858 50.6584 19.2858H51.6406C53.8601 19.2858 55.6658 21.0916 55.6658 23.3111C55.6658 25.2738 54.2538 26.9131 52.3922 27.2659Z" fill="#FF0000"/>
</g>
<defs>
<clipPath id="clip0_30_323">
<rect width="48" height="48" fill="white" transform="translate(16 16)"/>
</clipPath>
</defs>
</svg>
